 http://img3.imageshack.us/img3/9172/thechangeup2011.jpg

Country.......: USA
Genre.........: Comedy
Date release..: 05.08.2011 [World]
Director......: David Dobkin
Writers.......: Jon Lucas, Scott Moore
Duration......: 107 min.
More..........: http://www.imdb.com/title/tt1488555
Trailer.......: http://www.imdb.com/video/imdb/vi2848300057
Trailer.......:

Pilot :
A comedy in which a married father accidentally switches bodies with his best friend, leading to a series of wildly complex difficulties. 

Cats :
Ryan Reynolds   	 ...  	Mitch Planko
Jason Bateman 	... 	Dave Lockwood
Leslie Mann 	... 	Jamie Lockwood (as Leslie Mann)
Olivia Wilde 	... 	Sabrina McArdle
Alan Arkin 	... 	Mitchs Dad
Mircea Monroe 	... 	Tatiana
Gregory Itzin 	... 	Flemming Steel
Ned Schmidtke 	... 	Ted Norton
Lo Ming 	... 	Ken Kinkabe
Sydney Rouviere 	... 	Cara Lockwood
Dax Griffin 	... 	Blow Dried Goon
Andrea Moore 	... 	Sophia
Matt Cornwell 	... 	Parks Foreman (as Matthew Cornwell)
Craig Bierko 	... 	Valtan
Taaffe O Connell 	... 	Mona 

Data Technical :
!!! SAMPLE !!!
Audio.....: English
Subtitles.: None
Format                           : AVI
Format/Info                      : Audio Video Interleave
File size                        : 1.37 GiB
Duration                         : 1h 46mn
Overall bit rate                 : 1 835 Kbps
Writing library                  : VirtualDub build 30586/release
Video
ID                               : 0
Format                           : MPEG-4 Visual
Format profile                   : Advanced Simple@L5
Format settings, BVOP            : Yes
Format settings, QPel            : No
Format settings, GMC             : No warppoints
Format settings, Matrix          : Default (MPEG)
Muxing mode                      : Packed bitstream
Codec ID                         : XVID
Codec ID/Hint                    : XviD
Duration                         : 1h 46mn
Bit rate                         : 1 696 Kbps
Width                            : 640 pixels
Height                           : 288 pixels
Display aspect ratio             : 2.222
Frame rate                       : 29.000 fps
Color space                      : YUV
Chroma subsampling               : 4:2:0
Bit depth                        : 8 bits
Scan type                        : Progressive
Bits/(Pixel*Frame)               : 0.317
Stream size                      : 1.26 GiB (92%)
Writing library                  : XviD 64
Audio
ID                               : 1
Format                           : MPEG Audio
Format version                   : Version 1
Format profile                   : Layer 3
Mode                             : Joint stereo
Mode extension                   : MS Stereo
Codec ID                         : 55
Codec ID/Hint                    : MP3
Duration                         : 1h 46mn
Bit rate mode                    : Constant
Bit rate                         : 128 Kbps
Channel(s)                       : 2 channels
Sampling rate                    : 44.1 KHz
Stream size                      : 97.8 MiB (7%)
Alignment                        : Split accross interleaves
Interleave, duration             : 34 ms (1.00 video frame)
Writing library                  : LAME3.98r
Encoding settings                : -m j -V 4 -q 2 -lowpass 17 -b 128

Screen : 
http://img31.imageshack.us/img31/3806/thechangeup2011s1.jpg 
http://img37.imageshack.us/img37/8109/thechangeup2011s2.jpg 
http://img713.imageshack.us/img713/7060/thechangeup2011s3.jpg 
http://img820.imageshack.us/img820/9483/thechangeup2011s4.jpg 
http://img51.imageshack.us/img51/594/thechangeup2011s5.jpg